<?xml version="1.0" encoding="iso-8859-1"?>
<!-- Generator: Adobe Illustrator 19.0.0, SVG Export Plug-In . SVG Version: 6.00 Build 0)  -->
<svg version="1.1" id="Capa_1" xmlns="http://www.w3.org/2000/svg" xmlns:xlink="http://www.w3.org/1999/xlink" x="0px" y="0px"
	 viewBox="0 0 512 512" style="enable-background:new 0 0 512 512;" xml:space="preserve">
<path style="fill:#E8E8E8;" d="M306.747,108.422c-32.944,41.587-35.548,94.151-30.804,132.209l50.887,50.887V119
	C326.83,89.056,308.592,106.572,306.747,108.422z"/>
<path style="fill:#C1C4C6;" d="M323.447,103.798c-5.365-6.331-15.359,3.279-16.7,4.624c-32.944,41.587-35.548,94.151-30.804,132.209
	l20.325,20.324C290.901,215.54,293.3,155.769,323.447,103.798z"/>
<path style="fill:#C16B3D;" d="M191.473,434.885h12.135c6.762,0,12.245-5.482,12.245-12.244V237.558l-22.055-22.056h-14.569v207.139
	C179.229,429.403,184.711,434.885,191.473,434.885z"/>
<path style="fill:#AF542C;" d="M200.372,422.641V222.077l-6.574-6.574h-14.569v207.139c0,6.762,5.483,12.244,12.245,12.244
	c13.248,0,13.874,0.228,16.639-0.866C203.581,432.223,200.372,427.81,200.372,422.641z"/>
<path style="fill:#C16B3D;" d="M295.196,434.885h24.213c6.017,0,10.895-4.591,10.895-10.255c0-8.776,0-68.726,0-75.713
	l-46.002-46.002c0,13.777,0,110.06,0,121.715C284.302,430.294,289.18,434.885,295.196,434.885z"/>
<path style="fill:#AF542C;" d="M304.212,424.63c0-11.172,0-90.84,0-101.804l-19.91-19.911c0,13.777,0,110.06,0,121.715
	c0,5.664,4.878,10.255,10.895,10.255h19.91C309.09,434.885,304.212,430.294,304.212,424.63z"/>
<path style="fill:#93603E;" d="M284.302,398.125v26.506c0,5.664,4.878,10.255,10.895,10.255h24.213
	c6.017,0,10.895-4.591,10.895-10.255v-26.506H284.302z"/>
<path style="fill:#7F4C2F;" d="M304.212,424.63v-26.506h-19.91v26.506c0,5.664,4.878,10.255,10.895,10.255h19.91
	C309.09,434.885,304.212,430.294,304.212,424.63z"/>
<g>
	<path style="fill:#E8E8E8;" d="M156.713,135.24c4.099,0,7.516-3.223,7.712-7.36l1.158-24.394c0.202-4.263-3.089-7.882-7.352-8.085
		c-4.262-0.2-7.882,3.089-8.085,7.353l-1.158,24.393C148.78,131.542,152.283,135.24,156.713,135.24z"/>
	<path style="fill:#E8E8E8;" d="M213.372,207.775H190.82V103.12c0-4.268-3.46-7.728-7.727-7.728s-7.726,3.46-7.726,7.728v104.655
		h-9.439c-2.924,0-5.308-2.357-5.353-5.27l1.091-39.412c0.118-4.266-3.244-7.819-7.51-7.938c-4.279-0.102-7.819,3.245-7.938,7.51
		c-0.004,0.16-1.098,39.598-1.098,39.756c0,11.474,9.334,20.808,20.807,20.808h47.444c4.268,0,7.727-3.459,7.727-7.727
		C221.1,211.234,217.64,207.775,213.372,207.775z"/>
	<path style="fill:#E8E8E8;" d="M245.297,102.752c-0.202-4.262-3.813-7.544-8.084-7.352c-4.263,0.203-7.554,3.822-7.352,8.085
		l5.149,108.437c0.197,4.138,3.613,7.36,7.712,7.36c4.428,0,7.933-3.696,7.724-8.093L245.297,102.752z"/>
	<path style="fill:#E8E8E8;" d="M211.987,190.185c4.267,0,7.727-3.459,7.727-7.726v-79.34c0-4.268-3.459-7.728-7.727-7.728
		s-7.727,3.46-7.727,7.728v79.34C204.26,186.726,207.72,190.185,211.987,190.185z"/>
</g>
<path style="fill:#93603E;" d="M179.229,401.237v21.404c0,6.762,5.483,12.244,12.245,12.244h12.135
	c6.762,0,12.245-5.482,12.245-12.244v-21.404H179.229z"/>
<path style="fill:#7F4C2F;" d="M208.112,434.019c-4.531-1.796-7.74-6.209-7.74-11.378v-21.404h-21.143v21.404
	c0,6.762,5.483,12.244,12.245,12.244C207.544,434.885,204.555,435.065,208.112,434.019z"/>
<path style="fill:#EA473B;" d="M0,256.001C0,397.384,114.615,512,256,512c141.383,0,256-114.615,256-255.998
	C511.998,114.617,397.383,0,256,0C114.615,0,0,114.617,0,256.001z M469.325,256.001c0,49.118-16.61,94.353-44.51,130.411
	L125.585,87.184c36.061-27.898,81.297-44.51,130.415-44.51C373.814,42.674,469.323,138.185,469.325,256.001z M42.673,256.001
	c0-53.386,19.611-102.189,52.019-139.605l300.911,300.911c-37.415,32.409-86.219,52.02-139.602,52.02
	C138.184,469.327,42.673,373.816,42.673,256.001z"/>
<path style="fill:#E03B36;" d="M20.702,256.001C20.704,118.086,129.77,5.661,266.351,0.226C120.078-5.557,0.002,111.341,0,256.001
	c0,144.901,120.371,261.588,266.351,255.772C129.768,506.339,20.702,393.916,20.702,256.001z"/>
<g>
</g>
<g>
</g>
<g>
</g>
<g>
</g>
<g>
</g>
<g>
</g>
<g>
</g>
<g>
</g>
<g>
</g>
<g>
</g>
<g>
</g>
<g>
</g>
<g>
</g>
<g>
</g>
<g>
</g>
</svg>
